<?xml version="1.0" encoding="utf-8"?>
<!-- Generator: Adobe Illustrator 23.0.3, SVG Export Plug-In . SVG Version: 6.00 Build 0)  -->
<svg version="1.1" id="Layer_1" xmlns="http://www.w3.org/2000/svg" xmlns:xlink="http://www.w3.org/1999/xlink" x="0px" y="0px"
	 viewBox="0 0 513.1 94.1" style="enable-background:new 0 0 513.1 94.1;" xml:space="preserve">
<style type="text/css">
	.st0{fill:#4C7BBE;}
	.st1{fill:none;stroke:#4C7BBE;stroke-width:4.5;stroke-miterlimit:10;}
	.st2{fill:#4C7BBE;stroke:#4C7BBE;stroke-width:5;stroke-miterlimit:10;}
</style>
<g>
	<path class="st0" d="M32.6,42.1v15.8H8.4c-4,0-7.2-3.2-7.2-7.2c0-4,3.2-7.2,7.2-7.2h19.9v-1.3c0-2.6-2.1-4.7-4.6-4.7H1.2v-4.2h22.5
		C28.6,33.2,32.6,37.1,32.6,42.1C32.6,42.1,32.6,42.1,32.6,42.1z M28.3,47.7H8.4c-1.6,0-3,1.3-3,3c0,1.6,1.3,3,3,3h19.9L28.3,47.7z"
		/>
	<path class="st0" d="M46,33.2h22.5V68h-4.2V57.9H46c-4.9,0-8.9-4-8.9-9v-6.8C37.1,37.2,41.1,33.2,46,33.2z M64.3,37.4H46
		c-2.6,0-4.6,2.1-4.6,4.7v6.8c0,2.6,2.1,4.7,4.6,4.7h18.3V37.4z"/>
	<path class="st0" d="M100.2,33.2h4.2v24.7H81.9c-4.9-0.1-8.9-4-8.9-9V33.2h4.2v15.7c0,2.6,2.1,4.6,4.6,4.7h18.3V33.2z"/>
	<path class="st0" d="M117.9,33.2h22.5v4.2h-22.5c-2.6,0-4.7,2.1-4.7,4.7c0,0,0,0,0,0v1.3h27.2v4.3h-27.2v1.3c0,2.6,2.1,4.7,4.7,4.7
		c0,0,0,0,0,0h22.5v4.3h-22.5c-4.9,0-8.9-4-9-9v-6.8C108.9,37.1,112.9,33.2,117.9,33.2z"/>
	<path class="st0" d="M172,26.4h4.3v31.5h-22.5c-4.9,0-8.9-4-8.9-9v-6.8c0-4.9,4-8.9,8.9-8.9H172V26.4z M172,37.4h-18.3
		c-2.6,0-4.7,2.1-4.7,4.7v6.8c0,2.6,2.1,4.7,4.7,4.7H172V37.4z"/>
	<path class="st0" d="M208,33.2h4.2v24.7h-22.5c-4.9-0.1-8.9-4-8.9-9V33.2h4.2v15.7c0,2.6,2.1,4.6,4.6,4.7H208V33.2z"/>
	<path class="st0" d="M225.6,33.2h22.5v4.2h-22.5c-2.6,0-4.6,2.1-4.6,4.7v6.8c0,2.6,2.1,4.7,4.6,4.7h22.5v4.3h-22.5
		c-4.9,0-8.9-4-8.9-9v-6.8C216.7,37.2,220.7,33.2,225.6,33.2z"/>
</g>
<line class="st1" x1="78.5" y1="84.8" x2="162.1" y2="84.8"/>
<line class="st1" x1="186.1" y1="9.3" x2="251.8" y2="9.3"/>
<line class="st1" x1="275.8" y1="84.8" x2="435.2" y2="84.8"/>
<path class="st1" d="M174.1,21.3c0-6.6,5.4-12,12-12c0,0,0,0,0,0"/>
<path class="st1" d="M174.1,72.8c0,6.6-5.4,12-12,12c0,0,0,0,0,0"/>
<path class="st1" d="M66.5,72.8c0,6.6,5.4,12,12,12c0,0,0,0,0,0"/>
<path class="st1" d="M263.8,21.3c0-6.6-5.4-12-12-12c0,0,0,0,0,0"/>
<path class="st1" d="M263.8,72.8c0,6.6,5.4,12,12,12c0,0,0,0,0,0"/>
<line class="st1" x1="174.1" y1="72.8" x2="174.1" y2="60.3"/>
<line class="st1" x1="263.8" y1="72.8" x2="263.8" y2="60"/>
<line class="st1" x1="263.8" y1="24" x2="263.8" y2="21.3"/>
<path class="st1" d="M66.5,21.3c0-6.6-5.4-12-12-12c0,0,0,0,0,0"/>
<line class="st1" x1="2.5" y1="9.3" x2="54.5" y2="9.3"/>
<line class="st1" x1="66.5" y1="72.8" x2="66.5" y2="69.8"/>
<line class="st1" x1="66.5" y1="31.3" x2="66.5" y2="21.1"/>
<circle class="st2" cx="9.3" cy="9.3" r="6.8"/>
<circle class="st2" cx="428.4" cy="84.8" r="6.8"/>
<g>
	<path class="st0" d="M320.5,33.2H343v4.2h-22.5c-2.6,0-4.7,2.1-4.7,4.7c0,0,0,0,0,0v1.3H343v4.3h-27.2v10.2h-4.3V42.1
		C311.5,37.1,315.5,33.2,320.5,33.2z"/>
	<path class="st0" d="M347.5,26.4h4.2v31.5h-4.2V26.4z"/>
	<path class="st0" d="M383.5,33.2h4.2v24.7h-22.5c-4.9-0.1-8.9-4-8.9-9V33.2h4.2v15.7c0,2.6,2.1,4.6,4.6,4.7h18.3V33.2z"/>
	<path class="st0" d="M392.2,33.2h4.2v24.7h-4.2V33.2z"/>
	<path class="st0" d="M428.2,26.4h4.3v31.5h-22.5c-4.9,0-8.9-4-8.9-9v-6.8c0-4.9,4-8.9,8.9-8.9h18.3V26.4z M428.2,37.4h-18.3
		c-2.6,0-4.7,2.1-4.7,4.7v6.8c0,2.6,2.1,4.7,4.7,4.7h18.3V37.4z"/>
	<path class="st0" d="M437,33.2h4.2v24.7H437V33.2z"/>
	<path class="st0" d="M454.6,33.2h22.5v4.2h-22.5c-2.6,0-4.6,2.1-4.6,4.7v6.8c0,2.6,2.1,4.7,4.6,4.7h22.5v4.3h-22.5
		c-4.9,0-8.9-4-8.9-9v-6.8C445.8,37.2,449.7,33.2,454.6,33.2z"/>
	<path class="st0" d="M513.1,50.6c0,4-3.2,7.2-7.2,7.2c0,0,0,0,0,0h-24.2v-4.3h24.2c1.6,0,3-1.3,3-3c0-1.6-1.3-3-3-3h-17
		c-4,0-7.2-3.3-7.2-7.3c0-3.9,3.2-7.1,7.2-7.2h24.2v4.2h-24.2c-1.7,0-3,1.4-2.9,3.1c0,1.6,1.3,2.9,2.9,2.9h17
		C509.9,43.4,513.1,46.6,513.1,50.6C513.1,50.6,513.1,50.6,513.1,50.6z"/>
</g>
<path class="st0" d="M261.6,48.7V37.1h-10.2v-4.2h10.2v-6.8h4.2v6.8h17v4.2h-17v20.7h-4.2L261.6,48.7z"/>
<line class="st1" x1="174.1" y1="24" x2="174.1" y2="21.3"/>
</svg>
